# xmcd
#
# Track frame offsets:
# 150
# 13744
# 25075
# 41063
# 54796
# 69568
# 82465
# 96441
# 112163
# 126022
# 136041
# 148240
#
# Disc length: 2272 seconds
#
#
# Revision: 0
# Processed by: cddbd v1.5.2PL0 Copyright (c) Steve Scherf et al.
# Submitted via: FreeRIP 2.945 
#
DISCID=ad08de0c
DTITLE=Poeta e Trovador - O Andarilho
DYEAR=1979
DGENRE=Sertanejo
TTITLE0=O Andarilho
TTITLE1=Nossa Separação
TTITLE2=Coração de Mãe
TTITLE3=Semente do Amor
TTITLE4=Minha Namorada
TTITLE5=Minha Paixão
TTITLE6=Eu e Meus Dois Filhos
TTITLE7=Amor Impossivel
TTITLE8=O Preço da Traição
TTITLE9=Aceno de Adeus
TTITLE10=Pobre Homem Rico
TTITLE11=Abismo da Vida
EXTD=
EXTT0=Trovador e Martins
EXTT1=Laureano Cruz e Osvaldo Bettio
EXTT2=Compradre e Praense
EXTT3=Laurentino e José Bettio
EXTT4=Poeta, Teixiera e Cristiano Araujo
EXTT5=Laureano Cruz, Sgto Juarez Miranda e José Homero
EXTT6=Rubens Avelino e Tomaz
EXTT7=Laurentino, Noel Fernandes e Bakekê
EXTT8=Trovador, Claudio Balestro e José Russo
EXTT9=Poeta, Leonel Rocha e Jonas Junior
EXTT10=Poeta e Peão Carreiro
EXTT11=Poeta e Trovador
PLAYORDER=
